<?xml version="1.0" encoding="utf-8"?>
<!-- Generator: Adobe Illustrator 22.1.0, SVG Export Plug-In . SVG Version: 6.00 Build 0)  -->
<svg version="1.1" id="Layer_1" xmlns="http://www.w3.org/2000/svg" xmlns:xlink="http://www.w3.org/1999/xlink" x="0px" y="0px"
	 viewBox="0 0 1748.2 572.4" style="enable-background:new 0 0 1748.2 572.4;" xml:space="preserve">
<style type="text/css">
	.st0{fill:#FFFFFF;}
</style>
<g>
	<g>
		<path class="st0" d="M71.8,182.4c0-51.7,49.7-115.8,146.1-115.8c31.8,0,67.6,13.9,75,13.9c7,0,13.9-7,24.4-7
			c16.9,0,54.7,38.3,54.7,80c0,16.9-10.9,33.8-29.3,33.8c-33.3,0-52.7-56.7-104.4-56.7c-15.4,0-31.8,7-31.8,24.8
			c0,39.3,68.1,28.8,125.7,67.1c30.8,20.4,46.2,45.2,46.2,82.5c0,58.1-47.7,123.8-163.5,123.8c-32.8,0-89-8.4-117.3-23.9
			c-23.9-13.4-35.3-66.1-35.3-91.4c0-13.4,6-26.8,20.9-26.8c35.3,0,29.3,79,120.8,79c10.9,0,38.3-5.5,38.3-24.4
			c0-35.8-68.1-26.8-123.3-71.1C91.6,248.5,71.8,218.2,71.8,182.4z"/>
	</g>
	<g>
		<path class="st0" d="M536.9,339c0,48.2,16.9,39.8,16.9,58.6c0,30.8-66.1,29.8-86.5,29.8c-19.9,0-70.6,0-70.6-29.8
			c0-23.9,22.9-2.5,24.4-51.2l2-74.5c1-36.8-29.3-24.8-29.3-51.2c0-26.3,114.3-51.2,124.2-51.2c10.9,0,17.9,9.4,17.9,19.4
			c0,3-0.5,6-0.5,8.9c0,6,2.5,12.9,9.9,12.9c8,0,12.4-10.4,22.4-20.9c9.9-9.9,24.8-20.4,53.2-20.4c102.9,0,85.5,100.9,90.5,176.4
			c2.5,39.3,22.9,30.3,22.9,51.7c0,8.9,2,29.8-91.4,29.8c-17.9,0-65.6,1-65.6-26.8c0-17.9,16.4-9.4,18.9-41.7
			c2.5-35.3,16.4-114.8-30.3-114.8c-31.8,0-28.8,34.3-28.8,56.7V339z"/>
	</g>
	<g>
		<path class="st0" d="M1017.6,303.2c0,87.5,29.8,39.8,29.8,66.6c0,28.3-38.8,59.1-75,59.1c-39.3,0-40.3-25.3-52.7-25.3
			c-6,0-12.4,6.5-23.4,12.4c-10.9,6.5-25.8,12.9-48.7,12.9c-41.3,0-82.5-21.9-82.5-71.1c0-35.3,33.8-79,121.3-79
			c15.4,0,22.4,1,22.4-16.9c0-16.4-0.5-50.7-23.4-50.7c-29.8,0-32.8,53.7-77,53.7c-15.9,0-27.8-11.4-27.8-27.3
			c0-42.2,84-69.6,131.2-69.6c28.3,0,105.9,10.9,105.9,85.5V303.2z M868.5,347c0,12.9,7,26.8,21.4,26.8c18.9,0,20.4-20.4,20.4-35.3
			c0-10.9,0.5-23.4-13.4-23.4C880,315.1,868.5,331.1,868.5,347z"/>
	</g>
	<g>
		<path class="st0" d="M1098.2,323.6c0-52.2-3-63.6-5.5-66.1c-6.5-6.5-33.3,0-33.3-28.3c0-33.8,102.4-59.6,139.2-59.6
			c11.9,0,13.9,4,13.9,14.9c0,3.5,0.5,10.4,5.5,10.4c7,0,34.8-26.8,75.5-26.8c65.1,0,99.9,65.1,99.9,123.3
			c0,66.6-47.2,137.7-119.8,137.7c-23.4,0-46.7-12.4-51.2-12.4c-7,0-8,10.4-8,15.9c0,37.8,30.8,25.8,30.8,50.2
			c0,27.8-45.2,31.3-64.6,31.3c-66.6,0-118.8-24.4-118.8-49.7c0-22.4,20.4-13.9,29.3-33.3c5-10.4,7-24.8,7-80V323.6z M1234.3,241.6
			c-17.9,0-23.9,7.5-23.9,97.9c0,16.4,8,22.4,25.3,22.4c30.8,0,34.8-33.3,34.8-57.2C1270.6,280.9,1265.6,241.6,1234.3,241.6z"/>
	</g>
	<g>
		<path class="st0" d="M1455.6,271.4c0-48.7-30.8-21.4-30.8-51.7c0-39.3,116.3-50.2,120.8-50.2c18.9,0,19.4,5,21.4,21.9
			c0.5,6,0,17.4,8.4,17.4c11.9,0,19.4-39.3,62.1-39.3c33.3,0,55.2,24.9,55.2,57.7c0,33.3-28.3,59.6-61.1,59.6
			c-32.3,0-41.3-28.3-54.2-28.3c-13.9,0-11.4,33.3-11.4,42.2c0,14.9,1.5,35.8,4,54.7c3,21.9,40.8,8.4,40.8,38.3
			c0,31.3-43.7,33.8-98.4,33.8c-22.9,0-90.5,1-90.5-33.3c0-20.9,22.9-20.9,28.3-38.3c4-12.4,5.5-40.8,5.5-54.7V271.4z"/>
	</g>
</g>
</svg>
