<?xml version="1.0" encoding="utf-8"?>
<!-- Generator: Adobe Illustrator 21.1.0, SVG Export Plug-In . SVG Version: 6.00 Build 0)  -->
<svg version="1.1" id="Layer_1" xmlns="http://www.w3.org/2000/svg" xmlns:xlink="http://www.w3.org/1999/xlink" x="0px" y="0px"
	 viewBox="0 0 738 127" style="enable-background:new 0 0 738 127;" xml:space="preserve">
<style type="text/css">
	.st0{fill:#FFFFFF;}
</style>
<g>
	<g>
		<path class="st0" d="M20.9,20.3c-0.6,0.1-1.2,0.2-1.8,0.4c-1.1,0.3-1.4-0.1-1.2-1.2l0,0c0.3-0.3,0.7-0.5,1.1-0.7
			c0.9-0.6,1.9-0.5,2.9-0.5c1-0.1,2-0.4,1.9-1.7c1.2,0,1.1,0.9,1.2,1.7c0,0.7-0.5,1-1.1,1.2c-0.6,0.1-1.2,0.1-1.8,0.2
			C21.8,19.8,21.4,20,20.9,20.3z"/>
	</g>
	<g>
		<path class="st0" d="M33,37.5c0.1,1.6-0.7,2.1-2.1,1.8c-0.4-0.3-1-0.4-1-1c1-0.6,2-1.3,3.1-1.9c0.3,0.2,0.4,0.5,0.4,0.7
			C33.2,37.4,33.1,37.5,33,37.5z"/>
	</g>
	<g>
		<path class="st0" d="M29.9,38.3c0.5,0.2,1,0.4,1,1c-0.6,0.1-1.1,0.2-1.7,0.3c-0.4,0.2-0.8,0.4-1.2,0.6l-0.5,0.2L27,40.3
			c-0.6-0.5-0.6-1.1,0-1.6C28,38.6,28.9,38.5,29.9,38.3z"/>
	</g>
	<g>
		<path class="st0" d="M47.2,41.6c-0.4-0.2-1-0.3-1.1-0.9c0.2-0.4,0.5-0.7,0.9-0.8c0.4,0,0.8,0.2,1.1,0.5c0.6,0.1,1.3,0,1.7,0.6
			c0.2,0.7-0.1,1.2-0.8,1.4C48.8,41.5,47.9,41.7,47.2,41.6z"/>
	</g>
	<g>
		<path class="st0" d="M47.9,47.5c0.8,0,1.7-0.3,2.2,0.8c-1.1,0.3-2.1,0.7-3.3,1C46.2,48.1,47,47.7,47.9,47.5z"/>
	</g>
	<g>
		<path class="st0" d="M47,61.6c-0.1,0.6-0.3,1-1,0.9c-0.2,0.3-0.5,0.4-0.8,0.1c0.3-0.9,0.8-1.7,1.7-2.1c0.2,0.2,0.3,0.3,0.5,0.5
			C47.3,61.2,47.2,61.4,47,61.6z"/>
	</g>
	<g>
		<path class="st0" d="M34.3,125.5l0.4-0.1c-0.1,0.8-0.7,1.2-1.5,1.8c-0.1-0.7-0.2-1.2-0.3-1.8c0.1-0.1,0.3-0.2,0.4-0.4
			C33.7,125.1,34.1,125.3,34.3,125.5z"/>
	</g>
	<g>
		<path class="st0" d="M49,59.5c0,0.6-0.4,0.9-0.9,1c-0.4,0.3-0.7,0.3-1-0.1H47c0-0.5,0.1-1,0.7-1.1c0.4-0.2,0.8-0.3,1.2-0.1
			L49,59.5z"/>
	</g>
	<g>
		<path class="st0" d="M36,32.7c0.7,0,1.3-0.1,2-0.1c0,0.6-0.2,1-0.9,1C36.5,33.5,36.1,33.3,36,32.7z"/>
	</g>
	<g>
		<path class="st0" d="M28,122.2c0,0.7-0.4,1.2-1.2,1.3c0-0.8,0.3-1.4,1.2-1.7V122.2z"/>
	</g>
	<g>
		<path class="st0" d="M32,124.5c0.3-0.3,0.7-0.7,1-1l0.4,0.3c0.1,0.3,0.1,0.6,0.1,1c0,0.3-0.2,0.6-0.4,0.9l-0.1-0.1
			C32.4,125.4,32.1,125.1,32,124.5z"/>
	</g>
	<g>
		<path class="st0" d="M33,37.5c0-0.4,0-0.8-0.1-1.1c0.1-0.6,0.4-1,1.1-0.8c0,0.3,0,0.7,0,1C33.9,37.2,33.6,37.5,33,37.5z"/>
	</g>
	<g>
		<path class="st0" d="M27,38.7c0,0.5,0,1.1,0,1.6c-0.8,0.1-1.2-0.3-1.1-1C26.1,38.8,26.5,38.6,27,38.7z"/>
	</g>
	<g>
		<path class="st0" d="M59.2,74.5c-0.2,0.3-0.3,0.6-0.5,1c-0.5-0.1-0.7-0.4-0.7-0.9c0.1-0.2,0.2-0.3,0.2-0.5
			C58.7,74.1,59,74.2,59.2,74.5z"/>
	</g>
	<g>
		<path class="st0" d="M59.2,81.6c-0.1,0.7-0.5,1.1-1.1,1.2c0-0.4,0-0.8-0.1-1.2v-0.1c0.2-0.1,0.4-0.3,0.6-0.4
			C58.8,81.2,59,81.4,59.2,81.6z"/>
	</g>
	<g>
		<path class="st0" d="M93.8,100.5h-0.4c-0.1-0.2-0.3-0.4-0.3-0.6c0-0.1,0.1-0.2,0.1-0.4c0.3,0,0.6,0,0.9,0c0.2,0.2,0.3,0.4,0.5,0.6
			C94.2,100.3,94,100.4,93.8,100.5z"/>
	</g>
	<g>
		<path class="st0" d="M57,113.3c0.2-0.2,0.3-0.4,0.5-0.6c0.2,0.2,0.3,0.4,0.5,0.7C57.6,113.6,57.3,113.6,57,113.3z"/>
	</g>
	<g>
		<path class="st0" d="M26.8,123.3c0,0.4,0.1,0.7,0.1,1.1c-0.4,0.1-0.8,0-1.1-0.5C26.2,123.7,26.5,123.5,26.8,123.3z"/>
	</g>
	<g>
		<path class="st0" d="M19,18.8c-0.1,0.6-0.5,0.8-1.1,0.7C18.2,19,18.5,18.7,19,18.8z"/>
	</g>
	<g>
		<path class="st0" d="M28,40.2c0.2-0.6,0.6-0.8,1.2-0.6C28.9,40.1,28.6,40.4,28,40.2z"/>
	</g>
	<g>
		<path class="st0" d="M36,34.6c-0.2,0.7-0.6,0.9-1.3,0.7C34.9,34.8,35.4,34.6,36,34.6z"/>
	</g>
	<g>
		<path class="st0" d="M49,44.6c-0.4-0.1-0.9-0.2-0.8-0.7c0-0.2,0.4-0.3,0.7-0.4l0,0c0.1,0.2,0.3,0.4,0.4,0.5
			C49.3,44.2,49.2,44.4,49,44.6z"/>
	</g>
	<g>
		<path class="st0" d="M49.9,45.4c-0.2,0.2-0.5,0.3-0.9,0.2c0-0.3,0-0.7,0-1l-0.1-0.2C49.8,44.1,50.2,44.4,49.9,45.4z"/>
	</g>
	<g>
		<path class="st0" d="M48.9,59.3c-0.4,0-0.8,0.1-1.2,0.1c0.2-0.3,0.3-0.6,0.5-0.9C48.6,58.6,48.9,58.8,48.9,59.3z"/>
	</g>
	<g>
		<path class="st0" d="M47.1,60.5c0.3,0,0.7,0.1,1,0.1c-0.1,0.6-0.5,0.9-1.1,1C47.1,61.2,47.1,60.9,47.1,60.5z"/>
	</g>
	<g>
		<path class="st0" d="M45.2,62.6c0.3,0,0.5,0,0.8-0.1c0,0.7-0.2,1.1-1,1l0,0C45.1,63.2,45.1,62.9,45.2,62.6z"/>
	</g>
	<g>
		<path class="st0" d="M93.8,100.5c0.1-0.3,0.1-0.7,0.2-1c0.4,0,0.7,0,1.1,0c0.2,0.2,0.3,0.4,0.2,0.7c-0.1,0.2-0.2,0.3-0.3,0.3
			C94.6,100.5,94.2,100.5,93.8,100.5z"/>
	</g>
	<g>
		<path class="st0" d="M132,37.5c-4.4-4.1-7.4-4.9-14.8-3.7c-2.9,1.6-4.5,4.7-7.8,6.8c-0.5-4.5-1.1-8.6-1.4-12.6
			c-0.2-2.2-1-3.7-2.6-5.1c-4-3.7-8.9-5.7-14-7.3c-3.1-1-6.4-1.7-9.5-3c-15.3-6.4-31.6-9.3-48-11.8c-8.2-1.2-16.4-1-24.3,3
			C6.9,5.2,4.1,7.2,0.9,7.7C0.4,7.7,0.3,8,0.8,8.4C1,9,2.2,8.2,2.3,8.7C2.2,10.1,0.8,9,0.8,10.1c4.3,0.7,8.7-2.1,12.8,0.7
			c-1.7,2.5-5.1,2.2-7,4.4c2.2-0.9,4.4-0.4,6.4-0.8c2.8-0.3,5.7-1.6,8.1,1c0.9,0.4,1.9,0.7,2.8,1.1c0.5,0.4,0.4,0.9,0.5,1.4
			c0.1,0.3,0.3,0.6,0.5,0.9c0.1,0,0.2,0,0.3,0.1c0.1,0.1,0,0.2-0.3,0.3c-0.2,0.3-0.3,0.6-0.2,1c0.1,0.3,0.3,0.6,0.6,0.8
			c-0.2,0.7-0.6-0.3-0.8,0c-0.9-0.1-1.8-0.2-2.5,0.7c-0.3,1,0.5,1.3,1.1,1.7c0.8,0.1,1.6,0.2,2.3,0.3c0,2.9,3,4.1,2.8,6.7
			c0.9,0,1.4,0,1.8,0c0.3,0.4,0.6,0.6,1,0.8c0.6,0.2,1.3,0.2,1.9,0.2c0.4,0,0.8,0,1.3,0c0.8,0,1.6,0,2.3,0.5c0.4,0.4,0.5,1,0.6,1.5
			c-0.4,0.4-0.7,0.7-1.1,1.1c-0.4,0.3-0.8,0.7-1.3,0.7c-0.3,0-0.5,0-0.7,0.2c-0.1,0-0.2,0.1-0.3,0.3s0,0.4,0.3,0.7
			c3,0.4,5.9,1.4,8.9,1c0.3,0.3,0.7,0.6,1.1,0.8c1.6,0.4,3.1-0.1,4.6-0.6c0.6-0.2,1.2-0.3,1.8-0.5c0.4-0.1,0.7-0.2,1.1-0.3
			c0.5-0.1,0.9-0.3,1.3-0.5L53,36v0.3c-0.4,0.2-0.8,0.4-1.2,0.6c-0.4,0-0.7,0.1-1,0.2c-0.2,0.1-0.4,0.1-0.5,0.2
			c-1.2,0.4-2.2,1-2.7,2.3c0,0.4,0.1,0.8,0.4,1.1c0.7,0.4,1.7,0.5,1,1.7c-0.2,0.3-0.3,0.6-0.1,0.9l0.2,0.4c0.3,0.2,0.4,0.5,0.4,0.9
			c-0.1,0.3-0.2,0.6-0.5,0.9c-0.4,0.6-0.7,1.3-1.1,1.9c0.6,0.7,1.5,0.4,2.2,0.8c0.5-0.1,1.1-0.1,1.7-0.2c0.1,2.3-2.3,3.1-2.8,4.9
			c0.3,0.4,0.7,0.8,1,1.1c-0.6,1.5-1.2,2.9-1.8,4.4c0.2,0.3,0.3,0.6,0.4,0.9l0.5,0.1c1.4-0.7,2.1-2,3.2-3c1.4-1.4,2.9-2.7,4.4-4
			c0.7-0.5,1.5-0.2,2.1,0.5c0.2,1.2-1,1.2-1.4,1.9c0.5,0.8,1.6,1.1,1.6,2c-0.5,3.1-3.6,3.5-5,5.6c-0.6,0.6-0.1,1,0.3,1.3
			c0.4,0.1,0.7,0.3,1.1,0.4c0.4,0.1,0.7,0.2,1.1,0.2c0.2,0,0.4,0,0.6,0c1.4,0.1,3-0.6,4,1.5c-1,2.3-3.5,4.4-3,7.5
			c0.1,0.1,0.3,0.2,0.4,0.4c0.6-0.1,1.1-0.4,1.5-0.8s0.6-0.9,0.9-1.3c0.2-0.3,0.4-0.6,0.6-0.9c0.1-0.3,0.2-0.6,0.5-0.8
			c0.3-0.2,0.4-0.5,0.5-0.8l0.4,0.2l-0.4,0.2c-0.2,0.3-0.4,0.5-0.6,0.7c-0.1,0.1-0.2,0.3-0.3,0.4c-0.2,0.3-0.3,0.6-0.6,0.9
			c-0.2,0.3-0.4,0.6-0.5,1c-0.5,0.6-1.1,1.1-1.6,1.7c-0.2,0.4-0.2,0.8,0,1.1c-0.6,1.1-1.2,2.2-1.8,3.4c0.4,0.5,0.7,1.1,1.1,1.6
			l0.2,0.4l0.4,0.1l0.4-0.2l0.2-0.3v0.4c-0.2,0.2-0.5,0.4-0.7,0.6c-0.3,0.4-0.4,0.9-0.6,1.4c-1.7,3.9-5.5,6.2-7.4,10.2
			c-2.6,5.6-7.8,9.5-11.3,14.6c-3.5,5-7.6,9.5-11.4,14.3c-0.3,0.2-0.4,0.5-0.2,0.9c0.2,0.3,0.5,0.5,0.8,0.7s0.5,0.4,0.7,0.7
			c0.2,0.3,0.4,0.5,0.7,0.7c0.7-0.1,1.3-0.2,2-0.3c0.3,0,0.6-0.1,0.9-0.4l0.2-0.4l0.2,0.3c0,0.3,0,0.6,0,0.8
			c0.1,0.3,0.3,0.6,0.5,0.8c0.4,0.2,0.7,0.1,0.9-0.2c1.1-1.2,2.2-2.4,3.1-3.5c1.4,0.2,2.3,0.5,3.2-0.2c2.6-1.9,5.7-2.7,8.5-3.9
			c2.8-1.2,4.7-3.6,7.4-4.7c0.3-0.2,0.6-0.2,1,0c5.3-1.6,6.8-6.9,10.4-10.3c1.5-0.3,2.9-0.9,4.4-1.9c3.8-2.5,5.6-6.6,8.5-9.9
			c0.2-0.2,0.6-0.2,1-0.4c0.4,0.5,0.8,1,1.1,1.3c2.5,0.6,2.4-2.3,3.7-2.9c1.4,0.7,0.7,2,1.4,2.8c2.2-1.5,4.6-0.5,7.2-0.7
			c0.5,1.9,0.9,3.6,1.3,5.2c-1.3,1.3-3.7,0.7-3.8,3c0.1,0.3,0.4,0.5,0.7,0.5c0.3,0,0.6,0,0.9,0c0.1,0,0.2,0,0.3,0c0-0.2,0-0.3,0-0.5
			c0.3,0,0.7,0,1,0.1c0.9-0.1,1.1,0.6,0.8,1.2c-0.2,0.6-0.7,0.5-1,0c-0.3,0-0.6-0.1-0.9-0.2c0-0.2,0-0.3,0-0.5h-0.1
			c-0.3,0-0.6,0-0.9,0c-0.4-0.1-0.6,0.1-0.7,0.5c0.5,1.6,0.6,3.3,2.8,4c2.5-0.5,3.4-2.5,3.9-4.7c3-1.3,4.6-3.3,5-6.4
			c-1.2-1.5-2.3-2.9-3.5-4.3c0.7-1.6,1.3-3.1,2.7-4.2c4.3-3.5,7.3-7.9,9.8-12.8c1.8-3.5,4.3-6.8,4.8-10.8
			c1.3-10.6,12.9-18.2,22.2-16.9c1.1,0.1,2,0.1,2.6-1.2C140.4,40,136.4,38.4,132,37.5z M100.2,92.1c-0.1,0.2-0.2,0.3-0.3,0.3
			c-0.7,0.1-1.5,0.3-1.7-0.7c0.5-0.1,1.1-0.1,1.6-0.2C100.2,91.7,100.3,91.9,100.2,92.1z"/>
	</g>
	<g>
		<path class="st0" d="M30,123.5c-0.6-0.1-0.9-0.4-1-1C29.6,122.6,29.9,122.9,30,123.5z"/>
	</g>
	<g>
		<path class="st0" d="M47,40.5c0.2-0.4,0.5-0.8,1.1-0.7c0,0.2,0,0.4,0,0.6C47.7,40.5,47.4,40.5,47,40.5z"/>
	</g>
	<g>
		<path class="st0" d="M20.9,20.3c0.2-0.5,0.6-0.8,1.2-0.6C21.9,20.1,21.5,20.4,20.9,20.3z"/>
	</g>
</g>
<g>
	<g>
		<path class="st0" d="M203.9,45h-23.4v59.7H176V45h-23.4v-4.1h51.4V45z"/>
	</g>
	<g>
		<path class="st0" d="M199.8,81.4c0-13.1,10-24.3,22.8-24.3c13,0,22.9,11.2,22.9,24.3c0,13-9.9,24.2-22.9,24.2
			C209.5,105.6,199.8,94.4,199.8,81.4z M222.6,101.5c10,0,18.3-9.1,18.3-20.2c0-11-8.4-20.1-18.3-20.1c-9.9,0-18.3,9.3-18.3,20.4
			C204.4,92.6,212.6,101.5,222.6,101.5z"/>
	</g>
	<g>
		<path class="st0" d="M278.3,62c-8.5,0.3-15.1,5.3-17.6,13.5v29.2h-4.5V57.9h4.2v11.5c3.2-6.6,9-11,15-11.6c1.2,0,2.2-0.1,2.9-0.1
			V62z"/>
	</g>
	<g>
		<path class="st0" d="M309,62c-8.5,0.3-15.1,5.3-17.6,13.5v29.2h-4.5V57.9h4.2v11.5c3.2-6.6,9-11,15-11.6c1.2,0,2.2-0.1,2.9-0.1V62
			z"/>
	</g>
	<g>
		<path class="st0" d="M314.4,81.1c0-13.2,9.9-24,22.9-24c13.2,0,22.8,11,22.9,24c0,0.6-0.1,1.7-0.1,2h-41.1
			c0.8,10.8,8.9,18.9,18.6,18.9c6.6,0,13-3.7,15.3-9l4,1.1c-2.8,6.7-10.7,11.5-19.4,11.5C324.4,105.6,314.4,94.4,314.4,81.1z
			 M355.8,79.5c-0.8-11-8.6-18.7-18.5-18.7c-9.8,0-17.7,7.8-18.4,18.7H355.8z"/>
	</g>
	<g>
		<path class="st0" d="M366,98.4l2.2-3.1c5,4.5,10.3,6.7,16.7,6.7c8.1,0,13.6-3.6,13.6-9.7c0-5.8-5.1-7.4-14.9-9.7
			C373,80,368.2,78.3,368.2,71c0-9.4,7.8-13.9,17.2-13.9c7.3,0,13.2,2.7,16.3,6.6l-2.5,2.4c-3.1-3.6-8.5-5.4-14-5.4
			c-6.9,0-12.6,2.9-12.6,9.6c0,5.4,3.6,6.5,12.2,8.5c11.8,2.8,18.3,4.9,18.3,13c0,8.4-7.1,13.8-18,13.8
			C377.8,105.6,370.9,103.2,366,98.4z"/>
	</g>
	<g>
		<path class="st0" d="M413.3,47.3V39h4.5v8.3H413.3z M413.3,104.7V57.9h4.5v46.8H413.3z"/>
	</g>
	<g>
		<path class="st0" d="M427.8,91.1c0-8.1,8.1-13.9,19.5-13.9c5,0,10.5,1,14.6,2.5v-4.6c0-8.8-5.5-14.5-14-14.5c-4.7,0-9.9,2-15,5.6
			l-1.8-3.1c6-4,11.7-6.1,17.1-6.1c11.2,0,18.3,7,18.3,18.4v22.8c0,1.5,0.6,2.2,1.9,2.2v4c-0.6,0.1-1.2,0.1-1.6,0.1
			c-2.2,0-4.3-1.6-4.3-4v-3.9c-4.3,5.6-11.3,8.7-19.1,8.7C434.5,105.6,427.8,99.3,427.8,91.1z M460.4,94.8c1-1.2,1.5-2.5,1.5-3.6
			v-8.3c-4.4-1.6-9.2-2.5-14-2.5c-9.4,0-15.7,4.2-15.7,10.4c0,6.3,5.2,11.2,12,11.2C451.1,102,457.5,99.2,460.4,94.8z"/>
	</g>
	<g>
		<path class="st0" d="M518.4,104.7h-4.5V78.6c0-12.1-3.3-17.4-10.8-17.4c-7.9,0-16,6.2-18.4,14.5v29h-4.5V57.9h4.1v11.2
			c3.8-7.1,11.8-12,20.1-12c10.2,0,13.9,7.5,13.9,20.7V104.7z"/>
	</g>
	<g>
		<path class="st0" d="M559.2,40.5c11.3,0,19.6,5.8,23.5,13.9l-3.8,2.2c-4.4-8.8-12.6-11.9-20.1-11.9c-16.2,0-25.3,14.4-25.3,27.9
			c0,15,11.2,28.4,25.5,28.4c7.6,0,16.6-3.8,21-12.5l3.9,1.9c-4.2,9.6-15.5,14.8-25.3,14.8c-17.5,0-29.8-16.7-29.8-32.9
			C529,56.9,540,40.5,559.2,40.5z"/>
	</g>
	<g>
		<path class="st0" d="M616.2,62c-8.5,0.3-15.1,5.3-17.6,13.5v29.2h-4.5V57.9h4.2v11.5c3.2-6.6,9-11,15-11.6c1.2,0,2.2-0.1,2.9-0.1
			V62z"/>
	</g>
	<g>
		<path class="st0" d="M619.2,81.4c0-13.1,10-24.3,22.8-24.3c13,0,22.9,11.2,22.9,24.3c0,13-9.9,24.2-22.9,24.2
			C628.9,105.6,619.2,94.4,619.2,81.4z M642,101.5c10,0,18.4-9.1,18.4-20.2c0-11-8.4-20.1-18.4-20.1c-9.9,0-18.3,9.3-18.3,20.4
			C623.8,92.6,632,101.5,642,101.5z"/>
	</g>
	<g>
		<path class="st0" d="M733.3,57.9h4.5l-20.2,46.8h-3.8l-10.5-24.7l-10.5,24.7h-3.9l-20.1-46.8h4.4l17.9,41.8l9.8-23l-8-18.7h4
			l6.5,15.5l6.4-15.5h4l-7.9,18.7l9.8,23L733.3,57.9z"/>
	</g>
</g>
</svg>
